<svg width="15" height="15" viewBox="0 0 15 15" fill="none" xmlns="http://www.w3.org/2000/svg">
<path d="M13.5894 7.70688L7.96437 1.45688C7.72749 1.19313 7.27249 1.19313 7.03562 1.45688L1.41061 7.70688C1.32965 7.79662 1.27651 7.90796 1.25764 8.02735C1.23878 8.14674 1.25501 8.26904 1.30436 8.37938C1.40436 8.605 1.62811 8.75 1.87499 8.75H3.12499V13.125C3.12499 13.2908 3.19084 13.4497 3.30805 13.5669C3.42526 13.6842 3.58423 13.75 3.74999 13.75H5.62499C5.79075 13.75 5.94972 13.6842 6.06693 13.5669C6.18414 13.4497 6.24999 13.2908 6.24999 13.125V10.625H8.74999V13.125C8.74999 13.2908 8.81584 13.4497 8.93305 13.5669C9.05026 13.6842 9.20923 13.75 9.37499 13.75H11.25C11.4158 13.75 11.5747 13.6842 11.6919 13.5669C11.8091 13.4497 11.875 13.2908 11.875 13.125V8.75H13.125C13.246 8.75052 13.3646 8.7158 13.4663 8.65009C13.5679 8.58438 13.6483 8.49052 13.6975 8.37994C13.7467 8.26936 13.7627 8.14684 13.7435 8.02733C13.7243 7.90782 13.6708 7.79648 13.5894 7.70688V7.70688Z" fill="#E5E5E5"/>
</svg>
