<svg width="13" height="13" viewBox="0 0 13 13" fill="none" xmlns="http://www.w3.org/2000/svg">
<path d="M12.5894 6.70688L6.96437 0.456876C6.72749 0.193126 6.27249 0.193126 6.03562 0.456876L0.410615 6.70688C0.32965 6.79662 0.276505 6.90796 0.257643 7.02735C0.23878 7.14674 0.255012 7.26904 0.304365 7.37938C0.404365 7.605 0.628115 7.75 0.87499 7.75H2.12499V12.125C2.12499 12.2908 2.19084 12.4497 2.30805 12.5669C2.42526 12.6842 2.58423 12.75 2.74999 12.75H4.62499C4.79075 12.75 4.94972 12.6842 5.06693 12.5669C5.18414 12.4497 5.24999 12.2908 5.24999 12.125V9.625H7.74999V12.125C7.74999 12.2908 7.81584 12.4497 7.93305 12.5669C8.05026 12.6842 8.20923 12.75 8.37499 12.75H10.25C10.4158 12.75 10.5747 12.6842 10.6919 12.5669C10.8091 12.4497 10.875 12.2908 10.875 12.125V7.75H12.125C12.246 7.75052 12.3646 7.7158 12.4663 7.65009C12.5679 7.58438 12.6483 7.49052 12.6975 7.37994C12.7467 7.26936 12.7627 7.14684 12.7435 7.02733C12.7243 6.90782 12.6708 6.79648 12.5894 6.70688Z" fill="#E5E5E5"/>
</svg>
