<svg width="100" height="100" viewBox="0 0 100 100" fill="none" xmlns="http://www.w3.org/2000/svg">
<path d="M50 58.3334C37.5 58.3334 33.3333 70.8334 33.3333 70.8334H66.6667C66.6667 70.8334 62.5 58.3334 50 58.3334Z" fill="#1E1E20"/>
<path d="M50 8.33337C27.025 8.33337 8.33333 27.025 8.33333 50C8.33333 72.975 27.025 91.6667 50 91.6667C72.975 91.6667 91.6667 72.975 91.6667 50C91.6667 27.025 72.975 8.33337 50 8.33337ZM50 83.3334C31.6208 83.3334 16.6667 68.3792 16.6667 50C16.6667 31.6209 31.6208 16.6667 50 16.6667C68.3792 16.6667 83.3333 31.6209 83.3333 50C83.3333 68.3792 68.3792 83.3334 50 83.3334Z" fill="#1E1E20"/>
<path d="M73.1458 36.8L68.525 29.8667L56.025 38.2C55.4184 38.6057 54.9289 39.1634 54.6053 39.8175C54.2817 40.4715 54.1353 41.199 54.1809 41.9273C54.2264 42.6557 54.4623 43.3593 54.8648 43.9679C55.2674 44.5766 55.8226 45.0689 56.475 45.3959L73.1417 53.7292L76.8708 46.275L66.625 41.1542L73.1458 36.8ZM45.825 41.925C45.8704 41.1969 45.7238 40.4696 45.3998 39.8159C45.0759 39.1622 44.586 38.605 43.9792 38.2L31.4792 29.8667L26.8542 36.8L33.3792 41.15L23.1333 46.2709L26.8625 53.725L43.5292 45.3917C44.1824 45.0662 44.7385 44.5744 45.1415 43.9659C45.5445 43.3574 45.7802 42.6535 45.825 41.925Z" fill="#1E1E20"/>
</svg>
