<svg width="56" height="64" viewBox="0 0 56 64" fill="none" xmlns="http://www.w3.org/2000/svg">
<path d="M26.6667 10C11.9633 10 0 21.9633 0 36.6667C0 51.37 11.9633 63.3333 26.6667 63.3333C41.37 63.3333 53.3333 51.37 53.3333 36.6667C53.3333 21.9633 41.37 10 26.6667 10ZM26.6667 56.6667C15.6367 56.6667 6.66667 47.6967 6.66667 36.6667C6.66667 25.6367 15.6367 16.6667 26.6667 16.6667C37.6967 16.6667 46.6667 25.6367 46.6667 36.6667C46.6667 47.6967 37.6967 56.6667 26.6667 56.6667Z" fill="white"/>
<path d="M23.3334 23.3333H30.0001V40H23.3334V23.3333ZM16.6667 0H36.6667V6.66666H16.6667V0ZM50.9767 19.0233L44.3101 12.3567L49.0234 7.64333L55.6901 14.31L50.9767 19.0233Z" fill="white"/>
</svg>
